<svg width="128" height="128" viewBox="0 0 128 128" fill="none" xmlns="http://www.w3.org/2000/svg">
  <circle cx="64" cy="64" r="60" fill="#1E1B4B"/>
  <path d="M50 40 L50 88 L60 88 L60 70 L68 70 C68 70 78 70 78 60 C78 50 68 50 68 50 L50 50 L50 40 Z" fill="#6D28D9"/>
  <path d="M78 40 L78 88 L88 88 L88 40 L78 40 Z" fill="#6D28D9"/>
  <path d="M50 40 L50 50 L60 50 L60 40 L50 40 Z" fill="#6D28D9"/>
  <path d="M60 60 L60 50 L68 50 C68 50 68 50 68 50 C68 50 68 60 68 60 L60 60 Z" fill="#6D28D9"/>
</svg>
